<?xml version="1.0" encoding="UTF-8" standalone="no"?>
<!-- Created with Inkscape (http://www.inkscape.org/) -->

<svg
   xmlns:dc="http://purl.org/dc/elements/1.1/"
   xmlns:cc="http://creativecommons.org/ns#"
   xmlns:rdf="http://www.w3.org/1999/02/22-rdf-syntax-ns#"
   xmlns:svg="http://www.w3.org/2000/svg"
   xmlns="http://www.w3.org/2000/svg"
   xmlns:sodipodi="http://sodipodi.sourceforge.net/DTD/sodipodi-0.dtd"
   xmlns:inkscape="http://www.inkscape.org/namespaces/inkscape"
   width="210mm"
   height="297mm"
   viewBox="0 0 744.09448819 1052.3622047"
   id="svg2"
   version="1.1"
   inkscape:version="0.91 r13725"
   sodipodi:docname="charTestOne.svg">
  <defs
     id="defs4" />
  <sodipodi:namedview
     id="base"
     pagecolor="#ffffff"
     bordercolor="#666666"
     borderopacity="1.0"
     inkscape:pageopacity="0.0"
     inkscape:pageshadow="2"
     inkscape:zoom="0.92"
     inkscape:cx="127.08606"
     inkscape:cy="367.11743"
     inkscape:document-units="px"
     inkscape:current-layer="layer1"
     showgrid="false"
     inkscape:window-width="1378"
     inkscape:window-height="937"
     inkscape:window-x="-8"
     inkscape:window-y="-8"
     inkscape:window-maximized="1" />
  <metadata
     id="metadata7">
    <rdf:RDF>
      <cc:Work
         rdf:about="">
        <dc:format>image/svg+xml</dc:format>
        <dc:type
           rdf:resource="http://purl.org/dc/dcmitype/StillImage" />
      </cc:Work>
    </rdf:RDF>
  </metadata>
  <g
     inkscape:label="Layer 1"
     inkscape:groupmode="layer"
     id="layer1">
    <g
       id="g4265"
       transform="translate(0.62494765,0)">
      <path
         sodipodi:nodetypes="cccccc"
         inkscape:connector-curvature="0"
         id="path4259"
         d="m 109.78261,455.62307 32.60869,556.52173 -102.173909,1.087 29.347826,-556.52177 17.391305,9.78261 23.913048,-4.34783"
         style="fill:#800000;fill-rule:evenodd;stroke:#000000;stroke-width:8;stroke-linecap:butt;stroke-linejoin:miter;stroke-miterlimit:4;stroke-dasharray:none;stroke-opacity:1" />
      <path
         inkscape:connector-curvature="0"
         id="path4255"
         d="m 127.17391,459.9709 123.91305,554.3478 -29.34783,-2.1739 -52.17391,17.3913 -43.47826,-7.6087 -29.34783,-564.13041 16.30435,10.86956 16.30435,-4.34782"
         style="fill:#800000;fill-rule:evenodd;stroke:#000000;stroke-width:8;stroke-linecap:butt;stroke-linejoin:miter;stroke-miterlimit:4;stroke-dasharray:none;stroke-opacity:1" />
      <path
         style="fill:#800000;fill-rule:evenodd;stroke:#000000;stroke-width:8;stroke-linecap:butt;stroke-linejoin:miter;stroke-miterlimit:4;stroke-dasharray:none;stroke-opacity:1"
         d="m 52.844909,461.05786 -123.913055,554.34784 29.347835,-2.1739 52.17391,17.3913 43.47826,-7.6087 29.34783,-564.13045 -16.30435,10.86956 -16.30435,-4.34782"
         id="path4257"
         inkscape:connector-curvature="0" />
      <path
         inkscape:connector-curvature="0"
         id="path4251"
         d="M 151.08696,463.23177 163.04348,449.10134 295.65217,978.44916 222.82609,1007.797 134.78261,457.79699 Z"
         style="fill:#800000;fill-rule:evenodd;stroke:#000000;stroke-width:8;stroke-linecap:butt;stroke-linejoin:miter;stroke-miterlimit:4;stroke-dasharray:none;stroke-opacity:1" />
      <path
         style="fill:#800000;fill-rule:evenodd;stroke:#000000;stroke-width:8;stroke-linecap:butt;stroke-linejoin:miter;stroke-miterlimit:4;stroke-dasharray:none;stroke-opacity:1"
         d="m 26.908427,467.5796 -11.95652,-14.13043 -132.608687,529.34782 72.826077,29.34781 88.04348,-549.99998 z"
         id="path4253"
         inkscape:connector-curvature="0" />
    </g>
    <g
       id="g4301"
       transform="translate(3.4454517,0)">
      <rect
         rx="16.037701"
         ry="16.037699"
         y="610.42212"
         x="28.158327"
         height="129.79901"
         width="116.03773"
         id="rect4195"
         style="opacity:1;fill:#0000ff;stroke:#000000;stroke-width:8;stroke-linejoin:miter;stroke-miterlimit:4;stroke-dasharray:none;stroke-opacity:1" />
      <rect
         style="opacity:1;fill:#ff0000;stroke:#000000;stroke-width:8;stroke-linejoin:miter;stroke-miterlimit:4;stroke-dasharray:none;stroke-opacity:1"
         id="rect4220"
         width="116.03773"
         height="68.929443"
         x="28.158327"
         y="671.29169"
         ry="16.037699"
         rx="16.037701" />
    </g>
    <g
       id="g4272"
       transform="translate(-1.8867912,0)">
      <rect
         ry="16.037735"
         y="330.66409"
         x="49.056602"
         height="115.09434"
         width="84.905663"
         id="rect4183"
         style="opacity:1;fill:#ffccaa;stroke:#280b0b;stroke-width:8;stroke-linejoin:miter;stroke-miterlimit:4;stroke-dasharray:none;stroke-opacity:1"
         rx="16.037735" />
      <path
         inkscape:connector-curvature="0"
         id="path4187"
         d="m 133.96226,364.62636 -85.849052,1.88679 0.943396,-20.75472 11.320754,-13.20755 59.433962,0.9434 10.37736,8.49057 z"
         style="fill:#2b1100;fill-rule:evenodd;stroke:#000000;stroke-width:1px;stroke-linecap:butt;stroke-linejoin:miter;stroke-opacity:1" />
      <path
         inkscape:connector-curvature="0"
         id="path4191"
         d="m 87.735849,366.51315 15.094341,15.09434 -20.754718,-0.9434 9.433962,16.03774 -16.037736,-21.69811 12.264151,1.88679 -8.490566,-10.37736 12.264151,0.9434"
         style="fill:#2b1100;fill-rule:evenodd;stroke:#000000;stroke-width:1px;stroke-linecap:butt;stroke-linejoin:miter;stroke-opacity:1" />
    </g>
    <path
       sodipodi:nodetypes="sssssssss"
       inkscape:connector-curvature="0"
       id="path4200"
       d="m -240.1764,556.91512 51.88687,0 c 8.88488,0 17.35569,7.25112 16.0377,16.0377 l -16.98113,113.20761 c -1.31799,8.78659 9.82831,16.9811 0.94343,16.9811 l -51.88687,0 c -8.88488,0 1.27759,-11.01872 4e-5,-19.81128 L -256.2141,572.95282 c -1.27755,-8.79255 7.15282,-16.0377 16.0377,-16.0377 z"
       style="opacity:1;fill:#0000ff;stroke:#000000;stroke-width:8;stroke-linejoin:miter;stroke-miterlimit:4;stroke-dasharray:none;stroke-opacity:1" />
    <g
       id="g4285"
       transform="translate(2.6538729,0)">
      <path
         sodipodi:nodetypes="sssssssss"
         inkscape:connector-curvature="0"
         id="rect4197"
         d="m 115.83325,726.34859 51.4113,-7.00895 c 8.80345,-1.20018 18.17611,4.84023 18.0571,13.72431 l -1.53324,114.46384 c -0.11901,8.8841 12.03206,15.49784 3.22861,16.69802 l -51.4113,7.00896 c -8.80345,1.20018 -0.22254,-11.09031 -2.6761,-19.62971 L 102.10894,744.40569 c -2.453551,-8.53938 4.92087,-16.85691 13.72431,-18.0571 z"
         style="opacity:1;fill:#0000ff;stroke:#000000;stroke-width:8;stroke-linejoin:miter;stroke-miterlimit:4;stroke-dasharray:none;stroke-opacity:1" />
      <path
         style="opacity:1;fill:#0000ff;stroke:#000000;stroke-width:8;stroke-linejoin:miter;stroke-miterlimit:4;stroke-dasharray:none;stroke-opacity:1"
         d="M 58.104291,725.4052 6.6929917,718.39625 c -8.80345,-1.20018 -18.1761107,4.84023 -18.0571007,13.72431 l 1.5332402,114.46384 c 0.11901,8.8841 -12.0320642,15.49784 -3.2286102,16.69802 l 51.4113,7.00896 c 8.80345,1.20018 0.22254,-11.09031 2.6761,-19.62971 L 71.828601,743.4623 c 2.45355,-8.53938 -4.92087,-16.85691 -13.72431,-18.0571 z"
         id="path4202"
         inkscape:connector-curvature="0"
         sodipodi:nodetypes="sssssssss" />
    </g>
    <g
       id="g4281"
       transform="translate(3.310945,0)">
      <path
         sodipodi:nodetypes="sssssssss"
         inkscape:connector-curvature="0"
         id="path4204"
         d="m -9.3415374,874.55224 40.0261424,4.28826 c 6.853906,0.7343 12.61104,8.69011 10.652356,17.37337 L 16.101148,1008.0904 c -1.958684,8.6832 5.76123,17.804 -1.092679,17.0698 l -40.02614,-4.2883 c -6.853896,-0.7343 2.166803,-10.9201 2.123883,-19.8239 l -0.538734,-111.77328 c -0.04292,-8.90374 7.237088,-15.45678 14.0909846,-14.72248 z"
         style="opacity:1;fill:#ff0000;stroke:#000000;stroke-width:7.06886816;stroke-linejoin:miter;stroke-miterlimit:4;stroke-dasharray:none;stroke-opacity:1" />
      <path
         style="opacity:1;fill:#ff0000;stroke:#000000;stroke-width:7.06886816;stroke-linejoin:miter;stroke-miterlimit:4;stroke-dasharray:none;stroke-opacity:1"
         d="m 181.96493,875.49564 -40.02614,4.28826 c -6.85391,0.7343 -12.61104,8.69011 -10.65236,17.37337 l 25.23582,111.87653 c 1.95868,8.6832 -5.76123,17.804 1.09268,17.0698 l 40.02614,-4.2883 c 6.85389,-0.7343 -2.16681,-10.9201 -2.12389,-19.8239 l 0.53874,-111.77328 c 0.0429,-8.90374 -7.23709,-15.45678 -14.09099,-14.72248 z"
         id="path4206"
         inkscape:connector-curvature="0"
         sodipodi:nodetypes="sssssssss" />
    </g>
    <g
       id="g4297"
       transform="translate(-2.6815392,0)">
      <path
         sodipodi:nodetypes="sssssssss"
         inkscape:connector-curvature="0"
         id="path4208"
         d="m 179.11101,483.38325 32.43279,-20.78132 c 5.55365,-3.55851 13.92763,-2.14565 16.83495,4.20534 l 37.45851,81.827 c 2.90732,6.35098 13.35426,7.31749 7.8006,10.876 l -32.43278,20.78132 c -5.55365,3.5585 -3.88045,-7.8141 -8.4127,-13.1295 l -56.8957,-66.72691 c -4.53225,-5.3154 -2.33931,-13.49343 3.21433,-17.05193 z"
         style="opacity:1;fill:#0000ff;stroke:#000000;stroke-width:8;stroke-linejoin:miter;stroke-miterlimit:4;stroke-dasharray:none;stroke-opacity:1" />
      <path
         style="opacity:1;fill:#0000ff;stroke:#000000;stroke-width:8;stroke-linejoin:miter;stroke-miterlimit:4;stroke-dasharray:none;stroke-opacity:1"
         d="M 3.0207696,481.95571 -30.075493,462.24818 c -5.667257,-3.37464 -13.990447,-1.68817 -16.688127,4.75467 l -34.757385,83.01037 c -2.697679,6.44283 -13.10734,7.7511 -7.440073,11.12574 l 33.096252,19.70753 c 5.66726,3.37462 3.622345,-7.93705 7.978004,-13.39809 L 6.792066,498.89317 c 4.355669,-5.46104 1.8959531,-13.56284 -3.7712964,-16.93746 z"
         id="path4210"
         inkscape:connector-curvature="0"
         sodipodi:nodetypes="sssssssss" />
    </g>
    <rect
       style="opacity:1;fill:#0000ff;stroke:#000000;stroke-width:8;stroke-linejoin:miter;stroke-miterlimit:4;stroke-dasharray:none;stroke-opacity:1"
       id="rect4193"
       width="213.20755"
       height="135.84906"
       x="-16.981133"
       y="464.62634"
       ry="16.037701" />
    <g
       id="g4289"
       transform="translate(1.3740903,0)">
      <rect
         rx="16.037735"
         style="opacity:1;fill:#ffccaa;stroke:#280b0b;stroke-width:7.99999952;stroke-linejoin:miter;stroke-miterlimit:4;stroke-dasharray:none;stroke-opacity:1"
         id="rect4216"
         width="52.296967"
         height="45.529121"
         x="0.14355071"
         y="686.09888"
         ry="16.037735" />
      <rect
         ry="16.037735"
         y="682.83801"
         x="124.05659"
         height="45.529121"
         width="52.296967"
         id="rect4218"
         style="opacity:1;fill:#ffccaa;stroke:#280b0b;stroke-width:7.99999952;stroke-linejoin:miter;stroke-miterlimit:4;stroke-dasharray:none;stroke-opacity:1"
         rx="16.037735" />
    </g>
    <g
       id="g4277"
       transform="translate(7.35235,0)">
      <path
         sodipodi:nodetypes="sssssssss"
         inkscape:connector-curvature="0"
         id="rect4222"
         d="m -28.383935,1028.4902 21.3084612,-1.087 c 8.8733681,-0.4526 16.037735,7.1528 16.037735,16.0377 l 0,13.4537 c 0,8.8849 -7.1528298,16.0377 -16.037735,16.0377 l -35.4388962,0 c -8.884905,0 -16.037735,-7.1528 -16.037735,-16.0377 l 0,-13.4537 c 0,-8.8849 21.294802,-14.4981 30.16817,-14.9507 z"
         style="opacity:1;fill:#ff0000;stroke:#280b0b;stroke-width:7.99999905;stroke-linejoin:miter;stroke-miterlimit:4;stroke-dasharray:none;stroke-opacity:1" />
      <path
         style="opacity:1;fill:#ff0000;stroke:#280b0b;stroke-width:7.99999905;stroke-linejoin:miter;stroke-miterlimit:4;stroke-dasharray:none;stroke-opacity:1"
         d="m 192.92452,1031.7511 -21.30846,-1.087 c -8.87337,-0.4526 -16.03773,7.1528 -16.03773,16.0377 l 0,13.4537 c 0,8.8849 7.15283,16.0377 16.03773,16.0377 l 35.4389,0 c 8.8849,0 16.03773,-7.1528 16.03773,-16.0377 l 0,-13.4537 c 0,-8.8849 -21.2948,-14.4981 -30.16817,-14.9507 z"
         id="path4225"
         inkscape:connector-curvature="0"
         sodipodi:nodetypes="sssssssss" />
    </g>
    <g
       id="g4293"
       transform="translate(-0.45627498,0)">
      <path
         style="opacity:1;fill:#0000ff;stroke:#000000;stroke-width:7.99999952;stroke-linejoin:miter;stroke-miterlimit:4;stroke-dasharray:none;stroke-opacity:1"
         d="m -65.277846,554.76353 -28.524949,18.89078 c -4.8845,3.23478 -5.57218,12.3789 -0.038,19.24242 l 71.303772,88.43054 c 5.534235,6.86351 3.892096,17.77016 8.776587,14.53538 L 14.764556,676.97188 C 19.649048,673.7371 8.0306984,668.22815 3.920103,660.41466 l -51.602348,-98.0866 c -4.110588,-7.81348 -12.711109,-10.7993 -17.595601,-7.56453 z"
         id="path4214"
         inkscape:connector-curvature="0"
         sodipodi:nodetypes="sssssssss" />
      <path
         sodipodi:nodetypes="sssssssss"
         inkscape:connector-curvature="0"
         id="path4247"
         d="m 245.43569,555.85049 28.52494,18.89078 c 4.8845,3.23478 5.57218,12.3789 0.038,19.24242 l -71.30377,88.43054 c -5.53423,6.86351 -3.89209,17.77016 -8.77658,14.53538 l -28.525,-18.89077 c -4.88449,-3.23478 6.73386,-8.74373 10.84446,-16.55722 l 51.60234,-98.0866 c 4.11059,-7.81348 12.71111,-10.7993 17.59561,-7.56453 z"
         style="opacity:1;fill:#0000ff;stroke:#000000;stroke-width:7.99999952;stroke-linejoin:miter;stroke-miterlimit:4;stroke-dasharray:none;stroke-opacity:1" />
    </g>
    <path
       sodipodi:type="star"
       style="opacity:1;fill:#ff0000;stroke:#000000;stroke-width:11.53752804;stroke-linejoin:miter;stroke-miterlimit:4;stroke-dasharray:none;stroke-opacity:1"
       id="path4263"
       sodipodi:sides="3"
       sodipodi:cx="108.69565"
       sodipodi:cy="555.62311"
       sodipodi:r1="96.445572"
       sodipodi:r2="48.222786"
       sodipodi:arg1="0.87317206"
       sodipodi:arg2="1.9203696"
       inkscape:flatsided="false"
       inkscape:rounded="0"
       inkscape:randomized="0"
       d="m 170.65217,629.53615 -78.472678,-28.60682 -78.472677,-28.60682 64.010572,-53.65592 64.010573,-53.65592 14.4621,82.26274 z"
       inkscape:transform-center-x="-0.92275317"
       inkscape:transform-center-y="6.5539483"
       transform="matrix(0.09975524,-0.64536396,0.7276045,0.11246732,-323.99673,520.4335)" />
  </g>
</svg>
